<?xml version="1.0" encoding="utf-8"?>
<!-- Generator: Adobe Illustrator 27.5.0, SVG Export Plug-In . SVG Version: 6.00 Build 0)  -->
<svg version="1.1" id="Layer_1" xmlns="http://www.w3.org/2000/svg" xmlns:xlink="http://www.w3.org/1999/xlink" x="0px" y="0px"
	 viewBox="0 0 108.05 84.39" style="enable-background:new 0 0 108.05 84.39;" xml:space="preserve">
<g>
	<path d="M98.54,19.47H9.52c-4.91,0-8.9-3.98-8.9-8.9v0c0-4.91,3.98-8.9,8.9-8.9h89.02c4.91,0,8.9,3.98,8.9,8.9v0
		C107.43,15.48,103.45,19.47,98.54,19.47z"/>
	<path d="M98.54,51.09H9.52c-4.91,0-8.9-3.98-8.9-8.9v0c0-4.91,3.98-8.9,8.9-8.9h89.02c4.91,0,8.9,3.98,8.9,8.9v0
		C107.43,47.11,103.45,51.09,98.54,51.09z"/>
	<path d="M98.54,82.71H9.52c-4.91,0-8.9-3.98-8.9-8.9v0c0-4.91,3.98-8.9,8.9-8.9h89.02c4.91,0,8.9,3.98,8.9,8.9v0
		C107.43,78.73,103.45,82.71,98.54,82.71z"/>
</g>
</svg>
