<?xml version="1.0" encoding="utf-8"?>
<!-- Generator: Adobe Illustrator 27.5.0, SVG Export Plug-In . SVG Version: 6.00 Build 0)  -->
<svg version="1.1" id="Layer_1" xmlns="http://www.w3.org/2000/svg" xmlns:xlink="http://www.w3.org/1999/xlink" x="0px" y="0px"
	 viewBox="0 0 193.32 74.86" style="enable-background:new 0 0 193.32 74.86;" xml:space="preserve">
<style type="text/css">
	.st0{fill:#F4A41D;}
</style>
<g>
	<g>
		<path d="M9.64,47.23c6.4,0,9.85,2.83,9.85,8.89c0,6.64-4.36,9.54-10.51,9.54H6.84v8.54H0.79V47.23H9.64z M9.33,61.16
			c2.21,0,3.77-1.38,3.77-4.7c0-3.25-1.56-4.74-3.77-4.74H6.84v9.44H9.33z"/>
		<path d="M44.87,60.71c0,9.68-4.74,13.83-11.48,13.83c-6.74,0-11.48-4.15-11.48-13.83c0-9.68,4.74-13.83,11.48-13.83
			C40.13,46.88,44.87,51.03,44.87,60.71z M38.13,60.71c0-6.85-1.69-9.34-4.74-9.34c-3.04,0-4.74,2.49-4.74,9.34
			c0,6.85,1.69,9.33,4.74,9.33C36.43,70.05,38.13,67.56,38.13,60.71z"/>
		<path d="M61.88,74.2l-4.05-9.85h-2.59v9.85h-6.22V47.23h9.09c5.57,0,9.51,2.52,9.51,7.92c0,3.84-1.66,6.09-4.32,7.23l5.81,11.83
			H61.88z M55.24,59.74h2.21c2.46,0,3.94-1.07,3.94-3.94c0-2.77-1.49-4.08-3.94-4.08h-2.21V59.74z"/>
		<path d="M90.37,52.24h-7.26V74.2h-6.22V52.24h-7.26v-5.01h20.75V52.24z"/>
		<path d="M100.05,51.9v7.05h8.99v4.5h-8.99V74.2h-6.22V47.23h16.22v4.67H100.05z"/>
		<path d="M134.73,60.71c0,9.68-4.74,13.83-11.48,13.83s-11.48-4.15-11.48-13.83c0-9.68,4.74-13.83,11.48-13.83
			S134.73,51.03,134.73,60.71z M127.99,60.71c0-6.85-1.69-9.34-4.74-9.34s-4.74,2.49-4.74,9.34c0,6.85,1.69,9.33,4.74,9.33
			S127.99,67.56,127.99,60.71z"/>
		<path d="M155.58,69.36v4.84h-16.7V47.23h6.4v22.13H155.58z"/>
		<path d="M165.43,74.2h-6.4V47.23h6.4V74.2z"/>
		<path d="M192.54,60.71c0,9.68-4.74,13.83-11.48,13.83s-11.48-4.15-11.48-13.83c0-9.68,4.74-13.83,11.48-13.83
			S192.54,51.03,192.54,60.71z M185.79,60.71c0-6.85-1.69-9.34-4.74-9.34s-4.74,2.49-4.74,9.34c0,6.85,1.69,9.33,4.74,9.33
			S185.79,67.56,185.79,60.71z"/>
	</g>
	<g>
		<path class="st0" d="M29.41,38.37c0.78,0,1,0.61,1,1c0,1.06-0.28,2.28-0.28,3.39c0,6.73,6.12,13.46,13.41,13.46
			c13.8,0,15.91-18.58,15.91-28.93c0-3.56-0.28-7.12-0.56-10.74c-0.11-1.67-0.22-3.5-0.11-5.23c-0.17-0.11-0.22-0.33-0.22-0.45
			c0-0.28,0.45-1.5,1.28-1.5c0.5,0,0.78,0.39,0.95,0.67c0.22,0.56,0.39,1.84,0.39,2.45c0.39,4.78,1.06,9.46,1.06,14.3
			c0,11.74-3.06,31.6-18.47,31.6c-3.28,0-6.34-1-8.85-2.89c-3.89-2.84-6.79-7.62-6.79-12.35c0-1.06,0.06-3.06,0.39-4.12
			C28.63,38.76,28.86,38.37,29.41,38.37z M80.21,5.88c-0.22-1.06-0.67-2-1.45-2.67c-0.95-0.61-2.39-0.95-3.67-0.95
			c-8.68,0-18.14,6.18-23.59,12.35c-2.67,2.95-4.67,6.34-6.56,9.79c-0.17,0.28-0.28,0.56-0.45,0.83c-0.17,0.33-0.33,0.61-0.56,0.89
			c-0.22,0.33-0.56,0.72-1.28,0.72c-0.83,0-1.33-0.67-1.33-1.33c0-0.28,0.06-0.5,0.17-0.72c1.89-4.01,4.51-8.01,7.45-11.4
			c5.73-6.56,15.8-13.07,25.15-13.07c1.5,0,3.17,0.22,4.56,0.83c1.56,0.72,3.39,2.78,3.39,4.56c0,0.11,0,0.33-0.11,0.56
			c-0.11,0.28-0.39,0.5-0.78,0.5c-0.56,0-0.78-0.39-0.83-0.61C80.26,6.05,80.26,5.99,80.21,5.88z"/>
		<path class="st0" d="M68.02,30.08c0.11-0.11,0.22-0.28,0.28-0.39l0.06-0.06H68.3c-0.17-0.22-0.22-0.44-0.22-0.67
			c0-1.61,2.11-2.17,3.06-2.23h0.06c0.11-0.06,0.33-0.11,0.61-0.11c0.44,0,0.78,0.17,1,0.44c0.89,0.39,1.33,1.34,1.45,2.11
			c2.06-0.06,4.06-0.5,6.01-1c0.11-0.06,0.22-0.06,0.33-0.06c0.5,0,0.89,0.39,0.89,0.89c0,0.22-0.11,0.33-0.22,0.45
			c-0.11,0.06-0.22,0.17-0.33,0.22c-0.22,0.11-0.5,0.22-0.83,0.28c-1.89,0.5-3.84,0.83-5.79,0.95c-0.11,2.67-0.72,5.4-2.11,7.79
			c-0.72,1.11-2.39,2.84-4.23,2.84c-1.95,0-2.67-2.11-2.67-3.73c0-2.34,1.06-4.9,2.23-6.9C67.68,30.69,67.85,30.36,68.02,30.08z
			 M68.24,39.32c0.33,0,1-0.33,1.39-0.67c1.84-1.5,2.73-5.23,2.89-7.79c-0.56-0.06-1.06-0.11-1.56-0.17c-1.39,2-2.95,5.29-2.95,7.46
			c0,0.22,0,0.61,0.11,0.89C68.13,39.21,68.18,39.32,68.24,39.32z"/>
		<path class="st0" d="M88.21,34.59c-0.5,0.78-1.06,1.72-1.67,2.56c-0.56,0.83-1.22,1.67-1.84,2.34c-0.61,0.56-1.39,1.11-2.17,1.11
			c-1.61,0-2.17-2.06-2.17-3.34c0-2.34,1.22-4.84,2.5-6.62c0.28-0.56,0.83-1.33,1.5-1.89c0.61-0.61,1.5-1.17,2.5-1.17
			c1.06,0,1.84,0.5,2.06,1.56c0.06,0.17,0.11,0.28,0.17,0.44c0.28,0.17,0.44,0.45,0.44,0.83c0,0.33-0.11,0.56-0.33,0.72
			c0.44,0,0.72,0.22,0.95,0.5c0.22,0.22,0.39,0.5,0.5,0.83c0.22,0.61,0.39,1.5,0.61,2.39c0.5,1.84,1.17,3.67,2.84,4.56
			c0.17,0.06,0.28,0.11,0.45,0.11c0.22,0.06,0.44,0,0.67,0c0.5,0,1.06,0.33,1.06,0.95c0,0.56-0.45,0.78-0.72,0.83
			c-0.28,0.11-0.56,0.11-0.72,0.11c-2.67,0-4.67-3-5.29-4.84c-0.28-1-0.44-2-0.61-3C88.71,33.92,88.43,34.26,88.21,34.59z
			 M83.04,38.04c0.22-0.17,0.5-0.45,0.83-0.83c0.61-0.61,1.22-1.5,1.84-2.39c0.61-0.83,1.22-1.72,1.72-2.39
			c0.28-0.39,0.56-0.61,0.83-0.83c0.06-0.06,0.11-0.17,0.22-0.22h-0.06c-0.89,0-1.22-0.61-1.39-1c0-0.11-0.06-0.17-0.06-0.22
			c-0.17,0.06-0.39,0.22-0.67,0.56c-1.5,1.72-3.28,4.95-3.28,7.18V38.04z"/>
		<path class="st0" d="M99.5,38.15c0,0.67,0.17,0.89,0.78,0.89c2,0,5.73-2.95,7.4-4.51c0.11-0.11,0.33-0.22,0.61-0.22
			c0.56,0,0.95,0.33,0.95,0.78c0,0.28-0.17,0.5-0.28,0.61c-0.33,0.5-1.22,1.22-1.72,1.5c-0.89,0.72-1.89,1.45-2.17,1.72
			c-1.17,0.83-3.23,2.06-5.01,2.06c-2.06,0-2.84-1.5-2.84-3.12c0-0.45,0.06-0.89,0.11-1.39c0.44-2.5,1.5-4.95,2.73-7.18
			c0.22-0.28,0.45-0.72,0.72-1.22c0.33-0.5,0.67-1.06,1.06-1.5c0.72-0.95,1.72-2,2.95-2c1.78,0,2.17,1.72,2.17,2.67
			c0,0.28-0.06,1-0.17,1.72c-0.11,0.33-0.17,0.61-0.28,0.89c-0.06,0.17-0.17,0.28-0.28,0.45c-0.11,0.11-0.33,0.28-0.61,0.28
			c-0.56,0-0.83-0.5-0.83-0.89c0-0.56,0.17-1.17,0.17-1.84c0-0.11,0-0.44-0.06-0.67c-0.06-0.06-0.06-0.06-0.06-0.11
			c0,0.06-0.06,0.06-0.06,0.11c-0.22,0.17-0.44,0.5-0.72,0.78c-0.45,0.67-0.95,1.34-1.11,1.5c-1.45,2.23-2.61,4.56-3.17,7.07
			C99.56,37.04,99.5,37.59,99.5,38.15z"/>
		<path class="st0" d="M111.57,45.99c-0.17-0.44-0.22-1.06-0.33-1.78c-0.11-1.34-0.11-2.73-0.11-3.17c0-4.62,0.67-9.18,1.67-13.74
			c0.39-1.84,2.06-8.68,2.95-10.18c0.11-0.11,0.28-0.39,0.44-0.61c0.17-0.17,0.5-0.44,1-0.44c0.61,0,1.11,0.33,1.11,0.95
			c0,1.45-0.61,3.95-1.33,6.4c-2.06,6.9-3.78,12.85-3.78,20.25c0.06-0.17,0.17-0.33,0.22-0.5c0.39-0.78,0.78-1.67,1.11-2.39
			c1.39-2.89,4.9-10.12,7.46-12.02c0.22-0.17,0.5-0.28,0.83-0.28c0.72,0,1.06,0.44,1.28,0.83c0.17,0.39,0.22,0.89,0.22,1.22
			c0,0.17-0.06,0.39-0.06,0.56c-0.22,2.11-0.67,4.23-0.89,6.34c-0.11,0.89-0.22,1.78-0.22,2.56c0,1.22,0.17,2.28,0.95,2.84
			c0.22,0.17,0.45,0.45,0.45,0.83s-0.33,0.95-0.95,0.95c-0.06,0-0.17,0-0.28-0.06c-2.61-0.67-2.95-3.67-2.95-5.34
			c0-2.28,0.45-4.56,0.89-6.79c-2.23,2.67-3.62,5.84-5.06,9.01c-0.72,1.56-1.45,3.12-2.22,4.67c-0.11,0.11-0.17,0.28-0.28,0.45
			c-0.11,0.11-0.22,0.28-0.39,0.39s-0.39,0.22-0.61,0.22c-0.39,0-0.67-0.22-0.78-0.45C111.74,46.55,111.63,46.27,111.57,45.99z"/>
		<path class="st0" d="M126.87,38.21c0-2.28,0.11-4.73,0.61-6.95c0.17-0.67,0.45-1.45,0.83-1.78c0.28-0.17,0.61-0.28,0.95-0.28
			c0.78,0,1.33,0.83,1.33,1.33c0,0.39-0.33,0.72-0.72,0.83c-0.11,0.67-0.17,1.56-0.22,2.45c0,1,0,2.11,0,3c0,0.95,0,1.95,0.11,2.89
			c0.11,0.95,0.28,1.56,0.78,2.34c0.11,0.17,0.17,0.39,0.17,0.56c0,0.5-0.45,1.11-1.17,1.11c-0.22,0-0.45-0.06-0.56-0.17
			C127.09,42.43,126.87,39.82,126.87,38.21z M128.82,21.29c0.39,0,0.72,0.17,0.89,0.44c0.06,0.06,0.11,0.11,0.22,0.17
			c0.11,0.11,0.33,0.33,0.33,0.67c0,0.28-0.17,0.56-0.39,0.72c-0.06,1.06-0.17,2.23-0.28,3.34c-0.06,0.33-0.28,0.95-1,0.95
			c-0.78,0-1.17-0.72-1.33-1.11c-0.17-0.5-0.22-1.06-0.22-1.39c0-0.33,0.06-1.22,0.28-2C127.43,22.29,127.93,21.29,128.82,21.29z"/>
		<path class="st0" d="M134.32,39.37c-0.61,0-1-0.33-1.22-0.72c-0.56-0.83-0.61-2.39-0.61-3.34c0-1.45,0.56-7.68,2.5-7.68
			c0.17,0,0.45,0.06,0.67,0.17c0.28,0.17,0.5,0.39,0.5,0.78c0,0.28-0.11,0.44-0.22,0.61c0,0.5-0.06,1.17-0.17,1.78
			c-0.11,0.67-0.28,1.33-0.39,2c-0.11,0.5-0.22,1-0.28,1.5c0.33-1.61,1.11-3.28,1.89-4.73c0.22-0.33,0.56-0.78,0.95-1.28
			c0.39-0.39,0.95-0.95,1.67-0.95c1.06,0,1.39,0.89,1.39,1.78c0,0.56-0.06,1.11-0.11,1.67c-0.11,1.28-0.22,2.67-0.28,3.95
			c0.11-0.17,0.22-0.39,0.39-0.56c0.56-0.83,1.11-1.84,1.67-2.78c0.61-1,1.17-2,1.72-2.67c0.28-0.39,0.56-0.72,0.89-0.95
			c0.28-0.28,0.61-0.5,1.06-0.5c0.61,0,0.95,0.44,1.06,0.83c0.17,0.33,0.17,0.72,0.17,0.95c0,0.56-0.06,1.22-0.17,1.89
			c-0.11,0.61-0.28,1.22-0.39,1.89c-0.28,1.33-0.56,2.61-0.56,3.95c0,0.95,0.11,1.95,0.45,2.84c0.11,0.22,0.17,0.39,0.22,0.45
			c0.06,0,0.11,0,0.17,0c0.11,0.06,0.28,0.06,0.39,0.06c0.11,0.06,0.39,0.06,0.56,0.22c0.28,0.11,0.44,0.39,0.44,0.72
			c0,0.45-0.39,0.72-0.67,0.83c-0.22,0.06-0.5,0.11-0.67,0.11c-2.61,0-3.28-3.56-3.28-5.62c0-1.89,0.45-3.78,1.11-5.45
			c0-0.17,0.06-0.28,0.11-0.39c-0.56,0.89-1.11,1.84-1.72,2.84c-0.61,0.95-1.22,1.95-1.78,2.67c-0.39,0.5-1.11,1.33-1.84,1.33
			c-1.56,0-1.95-1.95-1.95-3.17c0-1.22,0.28-2.34,0.61-3.39c0.11-0.28,0.28-0.67,0.39-1.11c-0.78,1-1.39,2.78-2,4.67
			c-0.39,1.17-0.72,2.34-1.06,3.12c-0.22,0.39-0.39,0.83-0.61,1.11C135.05,39.1,134.77,39.37,134.32,39.37z"/>
		<path class="st0" d="M150.23,43.82c-0.11-0.17-0.17-0.28-0.22-0.39c-0.11-0.17-0.11-0.33-0.11-0.45c0-0.45,0.39-0.83,0.95-0.83
			c0.39,0,0.61,0.28,0.72,0.39c1.11,1.56,2.78,2.67,4.73,2.67c0.22,0,0.61-0.06,0.95-0.11c0.11,0,0.22-0.06,0.28-0.06
			c-0.06-0.33-0.33-0.89-0.89-1.67s-1.28-1.67-2.06-2.67c-1.5-2-3.06-4.39-3.06-6.79c0-3.73,3.28-7.01,7.23-7.01
			c2.28,0,4.78,1.39,4.78,3.89c0,2.11-1.56,5.9-4.73,5.9c-0.06,0-0.17,0-0.28-0.06c-0.11,0-0.22,0-0.39-0.06
			c-0.28-0.06-0.61-0.28-0.61-0.83c0-0.83,0.5-0.89,1.11-0.89c0.06,0,0.11,0,0.22,0c0,0.06,0.06,0.06,0.11,0.06h0.05
			c1.45,0,2.73-2.5,2.73-4.01c0-1.22-1.06-1.84-2.5-1.84c-2.5,0-4.67,2.5-4.67,4.9c0,1.67,1.17,3.62,2.45,5.67
			c0.83,1.17,2.61,3.84,2.61,5.29c0,1.89-1.84,2.28-3.06,2.28c-2.28,0-4.62-1.22-5.95-2.84C150.57,44.27,150.4,44.05,150.23,43.82z"
			/>
	</g>
</g>
</svg>
