<?xml version="1.0" encoding="utf-8"?>
<!-- Generator: Adobe Illustrator 27.5.0, SVG Export Plug-In . SVG Version: 6.00 Build 0)  -->
<svg version="1.1" id="Layer_1" xmlns="http://www.w3.org/2000/svg" xmlns:xlink="http://www.w3.org/1999/xlink" x="0px" y="0px"
	 viewBox="0 0 431.79 86.03" style="enable-background:new 0 0 431.79 86.03;" xml:space="preserve">
<g>
	<g>
		<path d="M3.35,33.44V5.12h9.18c3.48,0,5.74,0.14,6.8,0.43c1.62,0.42,2.98,1.35,4.08,2.77c1.09,1.42,1.64,3.26,1.64,5.52
			c0,1.74-0.32,3.2-0.95,4.38c-0.63,1.19-1.43,2.12-2.4,2.79c-0.97,0.68-1.96,1.12-2.97,1.34c-1.37,0.27-3.34,0.41-5.93,0.41H9.06
			v10.68H3.35z M9.06,9.91v8.04h3.13c2.25,0,3.76-0.15,4.52-0.44c0.76-0.3,1.35-0.76,1.79-1.39c0.43-0.63,0.65-1.36,0.65-2.2
			c0-1.03-0.3-1.88-0.91-2.55c-0.61-0.67-1.37-1.09-2.3-1.26c-0.68-0.13-2.05-0.19-4.11-0.19H9.06z"/>
	</g>
	<g>
		<path d="M52.33,33.44h-6.22L43.64,27H32.32l-2.34,6.43h-6.07L34.95,5.12h6.05L52.33,33.44z M41.81,22.23l-3.9-10.51l-3.82,10.51
			H41.81z"/>
	</g>
	<g>
		<path d="M53.92,24.22l5.56-0.54c0.33,1.87,1.01,3.24,2.04,4.11c1.02,0.88,2.41,1.31,4.14,1.31c1.84,0,3.23-0.39,4.16-1.17
			c0.93-0.78,1.4-1.69,1.4-2.73c0-0.67-0.2-1.24-0.59-1.71c-0.39-0.47-1.08-0.88-2.06-1.23c-0.67-0.23-2.2-0.64-4.58-1.24
			c-3.06-0.76-5.22-1.69-6.45-2.8c-1.74-1.56-2.61-3.46-2.61-5.7c0-1.44,0.41-2.79,1.23-4.05c0.82-1.26,2-2.21,3.53-2.87
			s3.4-0.99,5.57-0.99c3.55,0,6.23,0.78,8.03,2.34c1.8,1.56,2.74,3.64,2.83,6.24l-5.72,0.25c-0.24-1.46-0.77-2.5-1.57-3.14
			c-0.81-0.64-2.01-0.96-3.62-0.96c-1.66,0-2.96,0.34-3.9,1.02c-0.61,0.44-0.91,1.02-0.91,1.76c0,0.67,0.28,1.24,0.85,1.72
			c0.72,0.61,2.47,1.24,5.25,1.89c2.78,0.66,4.84,1.34,6.17,2.04s2.38,1.66,3.13,2.88c0.75,1.22,1.13,2.72,1.13,4.51
			c0,1.62-0.45,3.14-1.35,4.56s-2.18,2.47-3.82,3.16c-1.65,0.69-3.7,1.03-6.16,1.03c-3.58,0-6.33-0.83-8.25-2.48
			C55.44,29.8,54.29,27.39,53.92,24.22z"/>
	</g>
	<g>
		<path d="M80.31,24.22l5.56-0.54c0.33,1.87,1.01,3.24,2.04,4.11c1.02,0.88,2.41,1.31,4.14,1.31c1.84,0,3.23-0.39,4.16-1.17
			c0.93-0.78,1.4-1.69,1.4-2.73c0-0.67-0.2-1.24-0.59-1.71c-0.39-0.47-1.08-0.88-2.06-1.23c-0.67-0.23-2.2-0.64-4.58-1.24
			c-3.06-0.76-5.22-1.69-6.45-2.8c-1.74-1.56-2.61-3.46-2.61-5.7c0-1.44,0.41-2.79,1.23-4.05c0.82-1.26,2-2.21,3.53-2.87
			s3.4-0.99,5.57-0.99c3.55,0,6.23,0.78,8.03,2.34c1.8,1.56,2.74,3.64,2.83,6.24l-5.72,0.25c-0.24-1.46-0.77-2.5-1.57-3.14
			c-0.81-0.64-2.01-0.96-3.62-0.96c-1.66,0-2.96,0.34-3.9,1.02c-0.61,0.44-0.91,1.02-0.91,1.76c0,0.67,0.28,1.24,0.85,1.72
			c0.72,0.61,2.47,1.24,5.25,1.89s4.84,1.34,6.17,2.04s2.38,1.66,3.13,2.88c0.75,1.22,1.13,2.72,1.13,4.51
			c0,1.62-0.45,3.14-1.35,4.56s-2.18,2.47-3.82,3.16c-1.65,0.69-3.7,1.03-6.16,1.03c-3.58,0-6.33-0.83-8.25-2.48
			C81.82,29.8,80.68,27.39,80.31,24.22z"/>
	</g>
	<g>
		<path d="M107.97,33.44V5.12h5.72v28.32H107.97z"/>
	</g>
	<g>
		<path d="M117.97,19.45c0-2.88,0.43-5.31,1.29-7.26c0.64-1.44,1.52-2.74,2.64-3.88c1.11-1.15,2.33-2,3.66-2.55
			c1.76-0.75,3.8-1.12,6.1-1.12c4.17,0,7.51,1.29,10.02,3.88s3.76,6.19,3.76,10.8c0,4.57-1.24,8.15-3.73,10.73
			c-2.49,2.58-5.81,3.87-9.97,3.87c-4.21,0-7.56-1.28-10.05-3.85C119.22,27.5,117.97,23.96,117.97,19.45z M123.87,19.26
			c0,3.21,0.74,5.64,2.22,7.29c1.48,1.66,3.36,2.48,5.64,2.48s4.15-0.82,5.61-2.46c1.46-1.64,2.19-4.1,2.19-7.39
			c0-3.25-0.71-5.67-2.13-7.26c-1.42-1.6-3.31-2.4-5.67-2.4s-4.26,0.81-5.7,2.42C124.59,13.56,123.87,16,123.87,19.26z"/>
	</g>
	<g>
		<path d="M149.96,33.44V5.12h5.56l11.59,18.91V5.12h5.31v28.32h-5.74l-11.42-18.47v18.47H149.96z"/>
	</g>
	<g>
		<path d="M195.72,33.94h-6.72V4.62h20.41v5.79h-13.7v5.7h11.82v5.79h-11.82V33.94z M190.01,32.94h4.72V20.9h11.82v-3.79h-11.82
			v-7.7h13.7V5.62h-18.41V32.94z"/>
	</g>
	<g>
		<path d="M226.25,34.42c-4.33,0-7.83-1.35-10.41-4.01c-2.57-2.65-3.87-6.34-3.87-10.96c0-2.94,0.45-5.45,1.34-7.46
			c0.67-1.49,1.59-2.85,2.74-4.03c1.16-1.19,2.44-2.09,3.83-2.66c1.82-0.77,3.94-1.16,6.3-1.16c4.29,0,7.79,1.36,10.38,4.04
			c2.59,2.67,3.9,6.42,3.9,11.15c0,4.68-1.3,8.41-3.87,11.08C234,33.07,230.53,34.42,226.25,34.42z M226.17,5.13
			c-2.23,0-4.21,0.36-5.91,1.08c-1.26,0.53-2.44,1.35-3.5,2.44c-1.07,1.1-1.92,2.36-2.54,3.74c-0.83,1.88-1.25,4.26-1.25,7.06
			c0,4.35,1.21,7.81,3.59,10.27c2.38,2.46,5.63,3.7,9.69,3.7c4,0,7.23-1.25,9.61-3.72c2.38-2.47,3.59-5.97,3.59-10.38
			c0-4.45-1.22-7.97-3.62-10.45C233.43,6.39,230.18,5.13,226.17,5.13z M226.23,29.53c-2.42,0-4.44-0.89-6.01-2.65
			c-1.56-1.74-2.35-4.31-2.35-7.63c0-3.37,0.77-5.94,2.29-7.65c1.54-1.72,3.58-2.59,6.07-2.59s4.53,0.86,6.04,2.56
			c1.5,1.68,2.26,4.24,2.26,7.6c0,3.39-0.78,5.99-2.32,7.72C230.66,28.65,228.65,29.53,226.23,29.53z M226.23,10.02
			c-2.23,0-3.97,0.74-5.33,2.26c-1.35,1.51-2.04,3.86-2.04,6.98c0,3.06,0.7,5.41,2.09,6.96c1.39,1.56,3.12,2.32,5.27,2.32
			c2.15,0,3.86-0.75,5.24-2.3c1.37-1.54,2.07-3.92,2.07-7.06c0-3.1-0.68-5.44-2.01-6.93C230.19,10.75,228.46,10.02,226.23,10.02z"/>
	</g>
	<g>
		<path d="M270.79,33.94h-8.01l-4.28-6.38c-1.45-2.17-2.45-3.55-2.96-4.1c-0.48-0.51-1-0.87-1.52-1.05
			c-0.55-0.19-1.46-0.29-2.71-0.29h-0.66v11.82h-6.72V4.62h12.54c3.11,0,5.33,0.26,6.77,0.79c1.47,0.55,2.66,1.53,3.54,2.92
			c0.87,1.38,1.31,2.97,1.31,4.73c0,2.24-0.67,4.13-2,5.6c-1.1,1.22-2.66,2.07-4.64,2.54c0.81,0.56,1.51,1.15,2.09,1.78
			c0.83,0.9,1.92,2.42,3.31,4.67L270.79,33.94z M263.31,32.94h5.67L266,28.18c-1.34-2.17-2.42-3.69-3.2-4.52
			c-0.77-0.82-1.76-1.59-2.95-2.29l-1.24-0.72l1.42-0.21c2.35-0.34,4.14-1.17,5.3-2.46c1.16-1.28,1.74-2.94,1.74-4.93
			c0-1.57-0.39-2.98-1.16-4.19c-0.76-1.2-1.78-2.05-3.04-2.51c-1.31-0.49-3.47-0.73-6.42-0.73h-11.54v27.32h4.72V21.11h1.66
			c1.38,0,2.38,0.11,3.04,0.35c0.68,0.24,1.32,0.68,1.92,1.31c0.56,0.6,1.57,1.98,3.07,4.23L263.31,32.94z M254.37,17.59h-4.73V9.41
			h4.96c2.36,0,3.75,0.03,4.24,0.1c1.05,0.18,1.88,0.6,2.46,1.28c0.59,0.68,0.88,1.56,0.88,2.64c0,0.95-0.22,1.76-0.67,2.41
			c-0.45,0.66-1.07,1.12-1.86,1.39C258.93,17.47,257.2,17.59,254.37,17.59z M250.64,16.59h3.73c3.33,0,4.55-0.17,4.98-0.32
			c0.58-0.2,1.02-0.53,1.35-1.01c0.33-0.48,0.49-1.1,0.49-1.84c0-0.84-0.21-1.48-0.64-1.98c-0.43-0.5-1.04-0.81-1.86-0.95
			c-0.29-0.04-1.25-0.09-4.09-0.09h-3.96V16.59z"/>
	</g>
	<g>
		<path d="M283.95,5.12h10.45c2.36,0,4.15,0.18,5.39,0.54c1.66,0.49,3.08,1.36,4.27,2.61c1.18,1.25,2.09,2.78,2.7,4.59
			c0.62,1.81,0.93,4.04,0.93,6.69c0,2.33-0.29,4.34-0.87,6.03c-0.71,2.06-1.72,3.73-3.03,5c-0.99,0.97-2.33,1.72-4.02,2.26
			c-1.26,0.4-2.95,0.6-5.06,0.6h-10.76V5.12z M289.67,9.91v18.76h4.27c1.6,0,2.75-0.09,3.46-0.27c0.93-0.23,1.7-0.62,2.31-1.18
			c0.61-0.55,1.11-1.46,1.5-2.73c0.39-1.27,0.58-3,0.58-5.19s-0.19-3.87-0.58-5.04s-0.93-2.09-1.62-2.74s-1.58-1.1-2.65-1.33
			c-0.8-0.18-2.36-0.27-4.69-0.27H289.67z"/>
	</g>
	<g>
		<path d="M312.54,33.44V5.12h21v4.79h-15.28v6.28h14.22v4.77h-14.22v7.71h15.82v4.77H312.54z"/>
	</g>
	<g>
		<path d="M337.48,24.22l5.56-0.54c0.33,1.87,1.01,3.24,2.04,4.11c1.02,0.88,2.4,1.31,4.14,1.31c1.84,0,3.23-0.39,4.16-1.17
			s1.4-1.69,1.4-2.73c0-0.67-0.2-1.24-0.59-1.71c-0.39-0.47-1.08-0.88-2.06-1.23c-0.67-0.23-2.2-0.64-4.58-1.24
			c-3.06-0.76-5.21-1.69-6.45-2.8c-1.74-1.56-2.61-3.46-2.61-5.7c0-1.44,0.41-2.79,1.23-4.05c0.82-1.26,2-2.21,3.54-2.87
			s3.4-0.99,5.57-0.99c3.55,0,6.23,0.78,8.03,2.34c1.8,1.56,2.74,3.64,2.83,6.24l-5.72,0.25c-0.25-1.46-0.77-2.5-1.57-3.14
			c-0.81-0.64-2.01-0.96-3.62-0.96c-1.66,0-2.96,0.34-3.9,1.02c-0.61,0.44-0.91,1.02-0.91,1.76c0,0.67,0.28,1.24,0.85,1.72
			c0.72,0.61,2.47,1.24,5.25,1.89c2.78,0.66,4.84,1.34,6.17,2.04s2.38,1.66,3.13,2.88c0.75,1.22,1.13,2.72,1.13,4.51
			c0,1.62-0.45,3.14-1.35,4.56s-2.18,2.47-3.83,3.16s-3.7,1.03-6.16,1.03c-3.58,0-6.33-0.83-8.25-2.48
			C339,29.8,337.85,27.39,337.48,24.22z"/>
	</g>
	<g>
		<path d="M365.14,33.44V5.12h5.72v28.32H365.14z"/>
	</g>
	<g>
		<path d="M389.48,23.02v-4.77h12.32v11.28c-1.2,1.16-2.93,2.18-5.21,3.06c-2.27,0.88-4.58,1.32-6.91,1.32
			c-2.96,0-5.54-0.62-7.75-1.86c-2.2-1.24-3.86-3.02-4.96-5.33c-1.11-2.31-1.66-4.83-1.66-7.54c0-2.95,0.62-5.57,1.85-7.86
			c1.24-2.29,3.05-4.05,5.43-5.27c1.82-0.94,4.08-1.41,6.78-1.41c3.52,0,6.26,0.74,8.24,2.21c1.98,1.47,3.25,3.51,3.81,6.11
			l-5.68,1.06c-0.4-1.39-1.15-2.49-2.25-3.29c-1.1-0.8-2.48-1.21-4.12-1.21c-2.5,0-4.49,0.79-5.96,2.38
			c-1.48,1.58-2.21,3.93-2.21,7.05c0,3.36,0.75,5.88,2.24,7.56s3.45,2.52,5.87,2.52c1.2,0,2.4-0.23,3.6-0.71s2.24-1.04,3.1-1.71
			v-3.59H389.48z"/>
	</g>
	<g>
		<path d="M407.13,33.44V5.12h5.56l11.59,18.91V5.12h5.31v28.32h-5.74l-11.42-18.47v18.47H407.13z"/>
	</g>
	<g>
		<path d="M15.96,81.9c-4.33,0-7.83-1.35-10.4-4.01c-2.57-2.65-3.87-6.34-3.87-10.96c0-2.94,0.45-5.45,1.34-7.47
			c0.67-1.49,1.59-2.85,2.74-4.03c1.16-1.19,2.44-2.08,3.83-2.66c1.81-0.77,3.93-1.16,6.3-1.16c4.29,0,7.78,1.36,10.38,4.04
			c2.59,2.67,3.9,6.42,3.9,11.15c0,4.68-1.3,8.41-3.87,11.08C23.72,80.54,20.24,81.9,15.96,81.9z M15.88,52.61
			c-2.23,0-4.22,0.36-5.91,1.08c-1.26,0.53-2.44,1.35-3.5,2.44c-1.07,1.1-1.92,2.36-2.54,3.74c-0.83,1.88-1.25,4.26-1.25,7.06
			c0,4.35,1.21,7.81,3.59,10.27c2.38,2.46,5.64,3.7,9.69,3.7c4,0,7.23-1.25,9.61-3.72c2.38-2.47,3.59-5.97,3.59-10.38
			c0-4.46-1.22-7.97-3.62-10.45C23.14,53.86,19.89,52.61,15.88,52.61z M15.94,77.01c-2.42,0-4.44-0.89-6.01-2.65
			c-1.56-1.74-2.35-4.31-2.35-7.62c0-3.37,0.77-5.94,2.29-7.64c1.53-1.72,3.58-2.59,6.07-2.59s4.53,0.86,6.04,2.56
			c1.5,1.68,2.26,4.24,2.26,7.6c0,3.39-0.78,5.99-2.32,7.72C20.37,76.12,18.36,77.01,15.94,77.01z M15.94,57.5
			c-2.23,0-3.97,0.74-5.33,2.26c-1.35,1.51-2.04,3.86-2.04,6.98c0,3.07,0.7,5.41,2.09,6.96c1.39,1.56,3.12,2.32,5.27,2.32
			c2.15,0,3.86-0.75,5.24-2.3c1.37-1.54,2.07-3.91,2.07-7.06c0-3.1-0.68-5.44-2.01-6.93C19.9,58.23,18.17,57.5,15.94,57.5z"/>
	</g>
	<g>
		<path d="M47.5,81.9c-3.03,0-5.72-0.65-7.99-1.93c-2.28-1.29-4.02-3.16-5.17-5.55c-1.14-2.37-1.71-4.98-1.71-7.76
			c0-3.02,0.64-5.75,1.91-8.1c1.28-2.37,3.18-4.22,5.64-5.48c1.88-0.97,4.24-1.47,7.01-1.47c3.61,0,6.48,0.78,8.54,2.31
			c2.07,1.54,3.41,3.7,4.01,6.41l0.11,0.5l-6.63,1.24l-0.13-0.44c-0.37-1.29-1.05-2.28-2.06-3.03c-1.01-0.74-2.3-1.11-3.83-1.11
			c-2.38,0-4.21,0.72-5.59,2.22c-1.38,1.48-2.08,3.74-2.08,6.71c0,3.22,0.71,5.65,2.11,7.23c1.41,1.58,3.21,2.35,5.5,2.35
			c1.13,0,2.28-0.23,3.42-0.67c1.06-0.42,2-0.92,2.78-1.49V71h-6.55v-5.77h13.32v11.99l-0.15,0.15c-1.24,1.2-3.05,2.27-5.37,3.17
			C52.27,81.44,49.89,81.9,47.5,81.9z M47.2,52.61c-2.61,0-4.82,0.46-6.55,1.35c-2.28,1.17-4.04,2.88-5.22,5.07
			c-1.19,2.21-1.79,4.77-1.79,7.62c0,2.63,0.54,5.09,1.61,7.33c1.06,2.21,2.66,3.93,4.76,5.11c2.12,1.19,4.64,1.8,7.5,1.8
			c2.26,0,4.52-0.43,6.73-1.29c2.1-0.82,3.75-1.76,4.89-2.81V66.23H47.79V70h6.55v4.34l-0.19,0.15c-0.9,0.7-1.98,1.3-3.23,1.78
			c-1.26,0.49-2.53,0.74-3.78,0.74c-2.56,0-4.66-0.9-6.25-2.69c-1.57-1.77-2.37-4.42-2.37-7.9c0-3.23,0.79-5.72,2.35-7.39
			c1.57-1.68,3.69-2.54,6.33-2.54c1.75,0,3.24,0.44,4.42,1.3c1.07,0.78,1.84,1.83,2.3,3.12l4.73-0.88
			c-0.59-2.23-1.77-4.02-3.51-5.32C53.26,53.32,50.58,52.61,47.2,52.61z"/>
	</g>
	<g>
		<path d="M94,70.5l5.54,1.76c-0.85,3.09-2.26,5.39-4.24,6.89c-1.98,1.5-4.48,2.25-7.52,2.25c-3.76,0-6.85-1.29-9.27-3.85
			c-2.42-2.57-3.63-6.08-3.63-10.54c0-4.71,1.22-8.37,3.65-10.98c2.43-2.61,5.63-3.91,9.6-3.91c3.46,0,6.28,1.02,8.44,3.07
			c1.29,1.21,2.25,2.95,2.9,5.22l-5.66,1.35c-0.33-1.47-1.03-2.63-2.1-3.48C90.65,57.42,89.36,57,87.84,57
			c-2.1,0-3.8,0.75-5.11,2.26c-1.31,1.51-1.96,3.95-1.96,7.32c0,3.58,0.64,6.13,1.93,7.65c1.29,1.52,2.96,2.28,5.02,2.28
			c1.52,0,2.83-0.48,3.92-1.45S93.52,72.57,94,70.5z"/>
	</g>
	<g>
		<path d="M103.29,66.93c0-2.88,0.43-5.31,1.29-7.26c0.64-1.44,1.52-2.74,2.64-3.88c1.11-1.15,2.33-2,3.66-2.55
			c1.76-0.75,3.8-1.12,6.1-1.12c4.17,0,7.51,1.29,10.02,3.88c2.5,2.59,3.76,6.19,3.76,10.8c0,4.57-1.24,8.15-3.73,10.73
			c-2.49,2.58-5.81,3.87-9.97,3.87c-4.21,0-7.56-1.29-10.05-3.85S103.29,71.43,103.29,66.93z M109.18,66.73
			c0,3.21,0.74,5.64,2.22,7.29c1.48,1.66,3.36,2.48,5.64,2.48s4.15-0.82,5.61-2.46c1.46-1.64,2.19-4.11,2.19-7.39
			c0-3.25-0.71-5.67-2.13-7.26s-3.31-2.4-5.67-2.4s-4.26,0.81-5.7,2.42S109.18,63.48,109.18,66.73z"/>
	</g>
	<g>
		<path d="M135.28,80.91V52.59h5.56l11.59,18.91V52.59h5.31v28.32h-5.74l-11.42-18.47v18.47H135.28z"/>
	</g>
	<g>
		<path d="M170.17,80.91V57.38h-8.4v-4.79h22.5v4.79h-8.38v23.53H170.17z"/>
	</g>
	<g>
		<path d="M187.96,80.91V52.59h21v4.79h-15.28v6.28h14.22v4.77h-14.22v7.71h15.82v4.77H187.96z"/>
	</g>
	<g>
		<path d="M214.41,80.91V52.59h5.56l11.59,18.91V52.59h5.31v28.32h-5.74l-11.42-18.47v18.47H214.41z"/>
	</g>
	<g>
		<path d="M249.29,80.91V57.38h-8.4v-4.79h22.5v4.79h-8.38v23.53H249.29z"/>
	</g>
</g>
</svg>
